<mxfile host="app.diagrams.net" modified="2022-02-15T03:43:43.243Z" agent="5.0 (Macintosh; Intel Mac OS X 10_15_7) AppleWebKit/537.36 (KHTML, like Gecko) Chrome/98.0.4758.82 Safari/537.36" etag="XkwzLhW-RQNWC1OMJ4yT" version="15.0.3" type="github">
  <diagram id="gvtxjVOCtosgmo1XtRqg" name="Page-1">
    <mxGraphModel dx="1298" dy="721" grid="1" gridSize="10" guides="1" tooltips="1" connect="1" arrows="1" fold="1" page="1" pageScale="1" pageWidth="850" pageHeight="1100" math="0" shadow="0">
      <root>
        <mxCell id="0" />
        <mxCell id="1" parent="0" />
        <mxCell id="e707IHgGc6bqBs209uvI-1" value="" style="html=1;dashed=0;whitespace=wrap;fillColor=#2875E2;strokeColor=#ffffff;points=[[0.005,0.63,0],[0.1,0.2,0],[0.9,0.2,0],[0.5,0,0],[0.995,0.63,0],[0.72,0.99,0],[0.5,1,0],[0.28,0.99,0]];shape=mxgraph.kubernetes.icon;prIcon=pod" vertex="1" parent="1">
          <mxGeometry x="250" y="130" width="50" height="48" as="geometry" />
        </mxCell>
        <mxCell id="e707IHgGc6bqBs209uvI-2" value="" style="html=1;dashed=0;whitespace=wrap;fillColor=#2875E2;strokeColor=#ffffff;points=[[0.005,0.63,0],[0.1,0.2,0],[0.9,0.2,0],[0.5,0,0],[0.995,0.63,0],[0.72,0.99,0],[0.5,1,0],[0.28,0.99,0]];shape=mxgraph.kubernetes.icon;prIcon=pod" vertex="1" parent="1">
          <mxGeometry x="250" y="220" width="50" height="48" as="geometry" />
        </mxCell>
        <mxCell id="e707IHgGc6bqBs209uvI-3" value="" style="html=1;dashed=0;whitespace=wrap;fillColor=#2875E2;strokeColor=#ffffff;points=[[0.005,0.63,0],[0.1,0.2,0],[0.9,0.2,0],[0.5,0,0],[0.995,0.63,0],[0.72,0.99,0],[0.5,1,0],[0.28,0.99,0]];shape=mxgraph.kubernetes.icon;prIcon=pod" vertex="1" parent="1">
          <mxGeometry x="250" y="320" width="50" height="48" as="geometry" />
        </mxCell>
        <mxCell id="e707IHgGc6bqBs209uvI-4" value="" style="html=1;dashed=0;whitespace=wrap;fillColor=#2875E2;strokeColor=#ffffff;points=[[0.005,0.63,0],[0.1,0.2,0],[0.9,0.2,0],[0.5,0,0],[0.995,0.63,0],[0.72,0.99,0],[0.5,1,0],[0.28,0.99,0]];shape=mxgraph.kubernetes.icon;prIcon=pvc" vertex="1" parent="1">
          <mxGeometry x="90" y="130" width="50" height="48" as="geometry" />
        </mxCell>
        <mxCell id="e707IHgGc6bqBs209uvI-5" value="" style="html=1;dashed=0;whitespace=wrap;fillColor=#2875E2;strokeColor=#ffffff;points=[[0.005,0.63,0],[0.1,0.2,0],[0.9,0.2,0],[0.5,0,0],[0.995,0.63,0],[0.72,0.99,0],[0.5,1,0],[0.28,0.99,0]];shape=mxgraph.kubernetes.icon;prIcon=pvc" vertex="1" parent="1">
          <mxGeometry x="90" y="220" width="50" height="48" as="geometry" />
        </mxCell>
        <mxCell id="e707IHgGc6bqBs209uvI-6" value="" style="html=1;dashed=0;whitespace=wrap;fillColor=#2875E2;strokeColor=#ffffff;points=[[0.005,0.63,0],[0.1,0.2,0],[0.9,0.2,0],[0.5,0,0],[0.995,0.63,0],[0.72,0.99,0],[0.5,1,0],[0.28,0.99,0]];shape=mxgraph.kubernetes.icon;prIcon=pvc" vertex="1" parent="1">
          <mxGeometry x="90" y="320" width="50" height="48" as="geometry" />
        </mxCell>
        <mxCell id="e707IHgGc6bqBs209uvI-8" value="" style="aspect=fixed;html=1;points=[];align=center;image;fontSize=12;image=img/lib/azure2/general/Blob_Block.svg;" vertex="1" parent="1">
          <mxGeometry x="456.43" y="220" width="65" height="52" as="geometry" />
        </mxCell>
        <mxCell id="e707IHgGc6bqBs209uvI-9" value="" style="aspect=fixed;html=1;points=[];align=center;image;fontSize=12;image=img/lib/azure2/general/Blob_Block.svg;" vertex="1" parent="1">
          <mxGeometry x="456.43" y="318" width="65" height="52" as="geometry" />
        </mxCell>
        <mxCell id="e707IHgGc6bqBs209uvI-11" value="" style="aspect=fixed;html=1;points=[];align=center;image;fontSize=12;image=img/lib/mscae/Docker.svg;" vertex="1" parent="1">
          <mxGeometry x="260" y="30" width="50" height="41" as="geometry" />
        </mxCell>
        <mxCell id="e707IHgGc6bqBs209uvI-14" value="Docker Artifactory - Store Images" style="text;html=1;align=center;verticalAlign=middle;resizable=0;points=[];autosize=1;strokeColor=none;" vertex="1" parent="1">
          <mxGeometry x="310" y="40" width="190" height="20" as="geometry" />
        </mxCell>
        <mxCell id="e707IHgGc6bqBs209uvI-16" value="" style="endArrow=classic;html=1;exitX=1;exitY=0.625;exitDx=0;exitDy=0;exitPerimeter=0;" edge="1" parent="1" source="e707IHgGc6bqBs209uvI-3">
          <mxGeometry width="50" height="50" relative="1" as="geometry">
            <mxPoint x="400" y="400" as="sourcePoint" />
            <mxPoint x="450" y="350" as="targetPoint" />
          </mxGeometry>
        </mxCell>
        <mxCell id="e707IHgGc6bqBs209uvI-17" value="" style="endArrow=classic;html=1;exitX=1;exitY=0.625;exitDx=0;exitDy=0;exitPerimeter=0;" edge="1" parent="1">
          <mxGeometry width="50" height="50" relative="1" as="geometry">
            <mxPoint x="300" y="245.5" as="sourcePoint" />
            <mxPoint x="450" y="245.5" as="targetPoint" />
          </mxGeometry>
        </mxCell>
        <mxCell id="e707IHgGc6bqBs209uvI-18" value="" style="endArrow=classic;html=1;exitX=1;exitY=0.625;exitDx=0;exitDy=0;exitPerimeter=0;" edge="1" parent="1">
          <mxGeometry width="50" height="50" relative="1" as="geometry">
            <mxPoint x="300" y="153.5" as="sourcePoint" />
            <mxPoint x="450" y="153.5" as="targetPoint" />
          </mxGeometry>
        </mxCell>
        <mxCell id="e707IHgGc6bqBs209uvI-19" value="" style="aspect=fixed;html=1;points=[];align=center;image;fontSize=12;image=img/lib/azure2/general/Blob_Block.svg;" vertex="1" parent="1">
          <mxGeometry x="456.43" y="130" width="65" height="52" as="geometry" />
        </mxCell>
        <mxCell id="e707IHgGc6bqBs209uvI-23" value="" style="shape=flexArrow;endArrow=classic;startArrow=classic;html=1;exitX=0.995;exitY=0.63;exitDx=0;exitDy=0;exitPerimeter=0;entryX=0.005;entryY=0.63;entryDx=0;entryDy=0;entryPerimeter=0;" edge="1" parent="1" source="e707IHgGc6bqBs209uvI-4" target="e707IHgGc6bqBs209uvI-1">
          <mxGeometry width="100" height="100" relative="1" as="geometry">
            <mxPoint x="160" y="250" as="sourcePoint" />
            <mxPoint x="240" y="160" as="targetPoint" />
          </mxGeometry>
        </mxCell>
        <mxCell id="e707IHgGc6bqBs209uvI-25" value="" style="shape=flexArrow;endArrow=classic;startArrow=classic;html=1;exitX=0.995;exitY=0.63;exitDx=0;exitDy=0;exitPerimeter=0;entryX=0.005;entryY=0.63;entryDx=0;entryDy=0;entryPerimeter=0;" edge="1" parent="1">
          <mxGeometry width="100" height="100" relative="1" as="geometry">
            <mxPoint x="139.5" y="250" as="sourcePoint" />
            <mxPoint x="250" y="250" as="targetPoint" />
          </mxGeometry>
        </mxCell>
        <mxCell id="e707IHgGc6bqBs209uvI-26" value="" style="shape=flexArrow;endArrow=classic;startArrow=classic;html=1;exitX=0.995;exitY=0.63;exitDx=0;exitDy=0;exitPerimeter=0;entryX=0.005;entryY=0.63;entryDx=0;entryDy=0;entryPerimeter=0;" edge="1" parent="1">
          <mxGeometry width="100" height="100" relative="1" as="geometry">
            <mxPoint x="139.5" y="350" as="sourcePoint" />
            <mxPoint x="250" y="350" as="targetPoint" />
          </mxGeometry>
        </mxCell>
        <mxCell id="e707IHgGc6bqBs209uvI-27" value="013" style="text;html=1;align=center;verticalAlign=middle;resizable=0;points=[];autosize=1;strokeColor=none;" vertex="1" parent="1">
          <mxGeometry x="521.4300000000001" y="144" width="40" height="20" as="geometry" />
        </mxCell>
        <mxCell id="e707IHgGc6bqBs209uvI-28" value="994" style="text;html=1;align=center;verticalAlign=middle;resizable=0;points=[];autosize=1;strokeColor=none;" vertex="1" parent="1">
          <mxGeometry x="521.4300000000001" y="234" width="40" height="20" as="geometry" />
        </mxCell>
        <mxCell id="e707IHgGc6bqBs209uvI-29" value="&lt;b&gt;........&lt;/b&gt;" style="text;html=1;align=center;verticalAlign=middle;resizable=0;points=[];autosize=1;strokeColor=none;" vertex="1" parent="1">
          <mxGeometry x="468.93" y="280" width="40" height="20" as="geometry" />
        </mxCell>
        <mxCell id="e707IHgGc6bqBs209uvI-30" value="036" style="text;html=1;align=center;verticalAlign=middle;resizable=0;points=[];autosize=1;strokeColor=none;" vertex="1" parent="1">
          <mxGeometry x="521.43" y="334" width="40" height="20" as="geometry" />
        </mxCell>
        <mxCell id="e707IHgGc6bqBs209uvI-31" value="PersistentVolume" style="text;html=1;align=center;verticalAlign=middle;resizable=0;points=[];autosize=1;strokeColor=none;" vertex="1" parent="1">
          <mxGeometry x="70" y="100" width="110" height="20" as="geometry" />
        </mxCell>
        <mxCell id="e707IHgGc6bqBs209uvI-33" value="Pods" style="text;html=1;align=center;verticalAlign=middle;resizable=0;points=[];autosize=1;strokeColor=none;" vertex="1" parent="1">
          <mxGeometry x="255" y="100" width="40" height="20" as="geometry" />
        </mxCell>
      </root>
    </mxGraphModel>
  </diagram>
</mxfile>
